<svg width="150" height="135" viewBox="0 0 150 135" fill="none" xmlns="http://www.w3.org/2000/svg">
<circle opacity="0.1" cx="82.0342" cy="67.5" r="67.5" fill="url(#paint0_linear)"/>
<path fill-rule="evenodd" clip-rule="evenodd" d="M76.9568 66.5012C65.1772 66.5012 55.628 74.8799 55.628 85.2155V85.2633C55.628 95.5989 65.1772 103.978 76.9568 103.978H108.41C109.585 103.978 110.738 103.894 111.862 103.734L117.955 108.898C118.121 109.039 118.342 109.117 118.573 109.117C119.064 109.117 119.461 108.768 119.461 108.338L119.462 101.273C125.623 97.9914 129.739 92.0491 129.739 85.2633V85.2155C129.739 74.8799 120.19 66.5012 108.41 66.5012H76.9568Z" fill="#1D4885"/>
<path d="M82.1309 21.6649H37.2197C20.3918 21.6649 6.75 33.6345 6.75 48.3997C6.75 63.1648 20.3918 75.1344 37.2197 75.1344H82.1309C98.9588 75.1344 112.601 63.1648 112.601 48.3997C112.601 33.6345 98.9588 21.6649 82.1309 21.6649Z" fill="url(#paint1_linear)"/>
<path fill-rule="evenodd" clip-rule="evenodd" d="M21.4297 67.3577V81.3535C21.4297 81.9688 21.9981 82.4675 22.6993 82.4675C23.0281 82.4675 23.3441 82.3555 23.5808 82.1552L35.3025 72.2316L21.4297 67.3577Z" fill="url(#paint2_linear)"/>
<path d="M39.2829 51.7415C41.9999 51.7415 44.2025 49.8089 44.2025 47.4249C44.2025 45.041 41.9999 43.1084 39.2829 43.1084C36.5659 43.1084 34.3633 45.041 34.3633 47.4249C34.3633 49.8089 36.5659 51.7415 39.2829 51.7415Z" fill="white"/>
<path d="M59.4372 51.7415C62.1542 51.7415 64.3568 49.8089 64.3568 47.4249C64.3568 45.041 62.1542 43.1084 59.4372 43.1084C56.7202 43.1084 54.5176 45.041 54.5176 47.4249C54.5176 49.8089 56.7202 51.7415 59.4372 51.7415Z" fill="white"/>
<path d="M80.068 51.7415C82.7851 51.7415 84.9876 49.8089 84.9876 47.4249C84.9876 45.041 82.7851 43.1084 80.068 43.1084C77.351 43.1084 75.1484 45.041 75.1484 47.4249C75.1484 49.8089 77.351 51.7415 80.068 51.7415Z" fill="white"/>
<defs>
<linearGradient id="paint0_linear" x1="176.117" y1="-204.224" x2="74.9406" y2="149.495" gradientUnits="userSpaceOnUse">
<stop stop-color="#5498FF"/>
<stop offset="0.515625" stop-color="#428EFF"/>
<stop offset="1" stop-color="#297FFF"/>
</linearGradient>
<linearGradient id="paint1_linear" x1="133.444" y1="-59.222" x2="111.993" y2="89.2382" gradientUnits="userSpaceOnUse">
<stop stop-color="#5498FF"/>
<stop offset="0.515625" stop-color="#428EFF"/>
<stop offset="1" stop-color="#297FFF"/>
</linearGradient>
<linearGradient id="paint2_linear" x1="38.0342" y1="44.5" x2="25.8716" y2="83.5398" gradientUnits="userSpaceOnUse">
<stop stop-color="#5498FF"/>
<stop offset="0.515625" stop-color="#428EFF"/>
<stop offset="1" stop-color="#297FFF"/>
</linearGradient>
</defs>
</svg>
